<svg aria-hidden="true" style="position: absolute; width: 0; height: 0; overflow: hidden;" version="1.1" xmlns="http://www.w3.org/2000/svg" xmlns:xlink="http://www.w3.org/1999/xlink">
<defs>

<symbol id="icon-book" viewBox="0 0 32 32">
<path d="M14.667 1.143h2.667v2.667h-2.667v-2.667z"></path>
<path d="M22.667 1.143h2.667v2.667h-2.667v-2.667z"></path>
<path d="M6.667 1.143h2.667v2.667h-2.667v-2.667z"></path>
<path d="M30.667 3.809h-5.333v4h-2.667v-4h-5.333v4h-2.667v-4h-5.333v4h-2.667v-4h-5.333c-0.354 0-0.693 0.14-0.943 0.391s-0.391 0.589-0.391 0.943v24c0 0.354 0.14 0.693 0.391 0.943s0.589 0.39 0.943 0.39h29.333c0.354 0 0.693-0.14 0.943-0.39s0.39-0.589 0.39-0.943v-24c0-0.354-0.14-0.693-0.39-0.943s-0.589-0.391-0.943-0.391zM24.558 20.895l-1.892-1.352v5.6c0 0.354-0.14 0.693-0.39 0.943s-0.589 0.39-0.943 0.39h-3.333v-5.333c0-0.354-0.14-0.693-0.39-0.943s-0.589-0.39-0.943-0.39h-1.333c-0.354 0-0.693 0.14-0.943 0.39s-0.39 0.589-0.39 0.943v5.333h-3.333c-0.354 0-0.693-0.14-0.943-0.39s-0.39-0.589-0.39-0.943v-5.6l-1.892 1.352-1.55-2.17 9.333-6.667c0.227-0.159 0.498-0.245 0.775-0.245s0.548 0.085 0.775 0.245l9.333 6.667-1.55 2.17z"></path>
</symbol>

<symbol id="icon-facebook" viewBox="0 0 32 32">
<path fill="#fff" style="fill: var(--color1, #fff)" d="M18.268 32v-14.316h4.884l0.699-5.59h-5.583v-3.5c0-1.571 0.524-2.794 2.794-2.794h2.969v-5.071c-0.699 0-2.439-0.168-4.365-0.168-0.973-0.067-1.949 0.079-2.86 0.427s-1.736 0.889-2.418 1.587c-0.682 0.698-1.204 1.535-1.53 2.454s-0.449 1.898-0.36 2.869v4.19h-4.884v5.59h4.884v14.316l5.77 0.007z"></path>
</symbol>

<symbol id="icon-instagram" viewBox="0 0 32 32">
<path fill="#fff" style="fill: var(--color1, #fff)" d="M15.766 3.187c1.992-0.077 3.987-0.023 5.973 0.16 0.963-0.012 1.92 0.157 2.821 0.498 1.243 0.579 2.242 1.578 2.821 2.821 0.34 0.903 0.507 1.862 0.493 2.827 0 1.493 0.16 1.99 0.16 5.973 0.077 1.992 0.023 3.987-0.16 5.973 0.012 0.963-0.157 1.92-0.498 2.821-0.579 1.243-1.578 2.242-2.821 2.821-0.901 0.341-1.858 0.51-2.821 0.498-1.493 0-1.99 0.16-5.973 0.16-1.991 0.075-3.984 0.020-5.968-0.165-0.963 0.012-1.92-0.157-2.821-0.498-1.242-0.577-2.24-1.574-2.821-2.814-0.341-0.901-0.51-1.858-0.498-2.821 0-1.493-0.16-1.99-0.16-5.973-0.077-1.992-0.023-3.987 0.16-5.973-0.012-0.963 0.157-1.92 0.498-2.821 0.29-0.616 0.682-1.178 1.162-1.661 0.389-0.58 0.981-0.995 1.659-1.162 0.901-0.341 1.858-0.51 2.821-0.498 1.985-0.183 3.98-0.237 5.973-0.16v-0.006zM15.766 0.533c-2.046-0.075-4.094-0.021-6.133 0.16-1.249-0.001-2.488 0.226-3.656 0.67-1.007 0.328-1.918 0.898-2.654 1.659-0.761 0.736-1.331 1.648-1.659 2.654-0.524 1.144-0.755 2.401-0.67 3.656-0.181 2.039-0.235 4.087-0.16 6.133-0.075 2.048-0.022 4.098 0.16 6.139-0.003 1.247 0.222 2.484 0.664 3.65 0.328 1.007 0.898 1.918 1.659 2.654 0.736 0.761 1.648 1.331 2.654 1.659 1.166 0.442 2.403 0.667 3.65 0.664 2.041 0.182 4.091 0.235 6.139 0.16 2.048 0.075 4.098 0.022 6.139-0.16 1.247 0.003 2.484-0.222 3.65-0.664 1.001-0.344 1.911-0.912 2.659-1.661s1.317-1.658 1.661-2.659c0.442-1.166 0.667-2.403 0.664-3.65 0-1.659 0.16-2.157 0.16-6.139 0.075-2.048 0.022-4.098-0.16-6.139 0.003-1.247-0.222-2.484-0.664-3.65-0.328-1.007-0.898-1.918-1.659-2.654-0.736-0.759-1.647-1.326-2.653-1.653-1.166-0.444-2.403-0.671-3.651-0.67-2.041-0.182-4.091-0.235-6.139-0.16zM15.766 7.834c-1.007-0.016-2.007 0.17-2.94 0.547s-1.781 0.939-2.493 1.651c-0.712 0.712-1.274 1.56-1.651 2.493s-0.564 1.933-0.547 2.94c0 1.51 0.448 2.985 1.286 4.24s2.031 2.233 3.425 2.811c1.395 0.578 2.929 0.729 4.41 0.434s2.84-1.021 3.908-2.089 1.794-2.427 2.089-3.908c0.294-1.48 0.143-3.015-0.434-4.41s-1.556-2.587-2.811-3.425-2.731-1.286-4.24-1.286zM15.766 20.443c-0.657 0.012-1.31-0.109-1.919-0.355s-1.163-0.612-1.627-1.077c-0.465-0.465-0.831-1.018-1.077-1.628s-0.367-1.262-0.355-1.919c-0.012-0.657 0.109-1.31 0.355-1.919s0.612-1.163 1.077-1.627c0.465-0.465 1.018-0.831 1.627-1.077s1.262-0.367 1.919-0.355c0.657-0.012 1.31 0.109 1.919 0.355s1.163 0.612 1.628 1.077c0.464 0.465 0.831 1.018 1.077 1.627s0.367 1.262 0.355 1.919c0.012 0.657-0.109 1.31-0.355 1.919s-0.612 1.163-1.077 1.628c-0.465 0.464-1.018 0.831-1.628 1.077s-1.262 0.367-1.919 0.355zM23.73 5.675c-0.361 0-0.714 0.107-1.014 0.308s-0.534 0.486-0.672 0.819-0.174 0.701-0.104 1.055c0.070 0.354 0.244 0.679 0.5 0.935s0.581 0.429 0.935 0.5c0.354 0.070 0.721 0.034 1.055-0.104s0.619-0.372 0.819-0.672c0.201-0.3 0.308-0.653 0.308-1.014-0.004-0.483-0.198-0.945-0.539-1.286s-0.804-0.535-1.286-0.539z"></path>
</symbol>


<symbol id="icon-left__arrow" viewBox="0 0 32 32">
<path style="fill: var(--color1, #e0b973)" d="M6.4 32h19.2c3.535 0 6.4-2.865 6.4-6.4v-19.2c0-3.535-2.865-6.4-6.4-6.4h-19.2c-3.535 0-6.4 2.865-6.4 6.4v19.2c0 3.535 2.865 6.4 6.4 6.4z"></path>
<path style="fill: var(--color2, #fff)" d="M11.942 15.804l6.204-6.204 1.848 1.848-4.356 4.356 4.356 4.356-1.848 1.848-6.204-6.204z"></path>
</symbol>

<symbol id="icon-rigth__arrow" viewBox="0 0 32 32">
<path style="fill: var(--color1, #e0b973)" d="M25.6 0h-19.2c-3.535 0-6.4 2.865-6.4 6.4v19.2c0 3.535 2.865 6.4 6.4 6.4h19.2c3.535 0 6.4-2.865 6.4-6.4v-19.2c0-3.535-2.865-6.4-6.4-6.4z"></path>
<path style="fill: var(--color2, #fff)" d="M20.058 15.803l-6.204 6.204-1.848-1.848 4.356-4.356-4.356-4.356 1.848-1.848 6.204 6.204z"></path>
</symbol>

<symbol id="icon-scroll" viewBox="0 0 32 32">
<path d="M16.085 32c-3.691-0.003-7.267-1.282-10.123-3.619s-4.816-5.59-5.549-9.207-0.193-7.376 1.528-10.641c1.721-3.265 4.517-5.834 7.916-7.274 3.897-1.582 8.26-1.567 12.145 0.042s6.981 4.683 8.618 8.557c1.637 3.874 1.683 8.237 0.128 12.144s-4.585 7.047-8.436 8.738c-1.97 0.834-4.088 1.263-6.228 1.259v0zM9.673 10.888l-2.632 2.571 8.834 8.627 8.835-8.63-2.632-2.57-6.203 6.059-6.202-6.056z"></path>
</symbol>

<symbol id="icon-twitter" viewBox="0 0 32 32">
<path d="M9.99 29.15c2.414 0.022 4.809-0.438 7.044-1.352s4.265-2.264 5.973-3.971c1.707-1.707 3.057-3.738 3.971-5.973s1.373-4.629 1.352-7.044v-0.874c1.22-0.929 2.282-2.049 3.144-3.318-1.171 0.509-2.405 0.861-3.668 1.048 1.299-0.816 2.284-2.047 2.794-3.493-1.262 0.702-2.613 1.231-4.017 1.571-0.591-0.666-1.317-1.197-2.131-1.559s-1.695-0.544-2.585-0.537c-1.705 0.027-3.333 0.717-4.539 1.923s-1.896 2.834-1.923 4.539c-0.042 0.473 0.015 0.949 0.168 1.398-2.57-0.124-5.084-0.796-7.373-1.971s-4.301-2.825-5.9-4.84c-0.575 1.011-0.876 2.155-0.874 3.318 0.023 1.056 0.287 2.092 0.771 3.030s1.176 1.754 2.023 2.384c-1.050-0.022-2.075-0.323-2.969-0.874-0.002 1.496 0.522 2.945 1.48 4.094s2.288 1.925 3.76 2.193c-0.569 0.151-1.159 0.208-1.747 0.168-0.415 0.030-0.831-0.027-1.223-0.168 0.426 1.296 1.242 2.428 2.337 3.242s2.414 1.27 3.777 1.305c-2.296 1.793-5.121 2.776-8.034 2.794-0.529 0.030-1.060-0.026-1.571-0.168 2.89 2.099 6.384 3.203 9.955 3.144z"></path>
</symbol>

<symbol id="icon-burger" viewBox="0 0 32 32">
<path d="M6.4 11.733v-2.133h19.2v2.133h-19.2zM6.4 17.067h19.2v-2.133h-19.2v2.133zM6.4 22.4h19.2v-2.133h-19.2v2.133z"></path>
</symbol>

<symbol id="icon-cross" viewBox="0 0 32 32">
<path d="M26.667 7.303l-1.97-1.97-7.808 7.808-7.808-7.808-1.97 1.97 7.808 7.808-7.808 7.808 1.97 1.97 7.808-7.808 7.808 7.808 1.97-1.97-7.808-7.808 7.808-7.808z"></path>
</symbol>

</defs>
</svg>
